<?xml version="1.0" standalone="yes"?>
<svg xmlns="http://www.w3.org/2000/svg" width="717" height="717">
<path style="fill:#ffffff; stroke:none;" d="M0 0L0 717L717 717L717 0L0 0z"/>
<path style="fill:#030303; stroke:none;" d="M427 415C431.714 408.308 438.22 402.78 444 397L474 367C467.708 358.093 457.86 351.473 450 343.961C429.352 324.225 408.18 304.995 387 285.83C357.677 259.298 328.938 232.044 300 205.09C271.505 178.547 242.168 152.85 214 125.961C194.369 107.221 174.539 88.16 154 70.4252C145.324 62.9331 134.187 56.8994 124.094 66.2137C114.432 75.1298 118.023 87.5689 126.04 96C144.897 115.83 164.481 135.344 182.424 156C199.478 175.631 218.185 193.97 235.91 213C275.451 255.45 314.865 298.066 354.961 340C370.71 356.472 386.54 373.102 401.83 390C406.441 395.095 411.228 399.974 415.91 405C419.459 408.809 422.206 412.758 427 415z"/>
<path style="fill:#ffffff; stroke:none;" d="M135 78C137.766 87.8587 149.129 95.5332 155.715 103C175.012 124.879 195.849 145.428 215.675 166.83C254.852 209.121 294.623 250.824 333.91 293C364.437 325.771 394.325 359.325 426 391C434.22 385.209 445.727 375.163 450 366C442.009 360.371 435.252 352.722 428 346.17C410.499 330.357 393.504 313.986 376 298.17C324.866 251.967 274.468 204.842 224 157.911C203.429 138.782 182.829 119.676 162 100.83C154.033 93.6218 145.293 81.499 135 78z"/>
<path style="fill:#030303; stroke:none;" d="M434 418C439.888 463.594 473.468 505.322 518 518.09C542.468 525.106 567.847 523.87 592 516.341C600.08 513.822 609.792 512.536 617 508C599.404 502.424 579.603 502.498 567.789 486C559.551 474.497 561.249 459.94 556.924 447C548.375 421.42 531.421 400.825 508 387.427C501.126 383.495 493.658 380.364 486 378.371C483.554 377.735 480.561 376.403 478 376.928C472.982 377.959 468.449 384.551 465 388C455.082 397.918 445.472 409.919 434 418z"/>
<path style="fill:#ffffff; stroke:none;" d="M561 506C557.413 498.17 550.84 492.363 547.866 484C542.677 469.407 542.566 454.337 535.972 440C528.555 423.873 515.386 410.544 500 401.876C495.837 399.53 487.947 394.931 483 395.929C476.762 397.187 470.327 406.673 466 411C462.149 414.851 455.289 419.599 453.694 425C452.758 428.167 454.385 432.008 455.344 435C457.924 443.052 461.622 450.806 466.065 458C480.766 481.806 504.49 498.731 532 504.192C541.554 506.089 551.307 506 561 506z"/>
</svg>
